<svg width="613" height="167" viewBox="0 0 613 167" fill="none" xmlns="http://www.w3.org/2000/svg">
<g id="Ellipse 2" filter="url(#filter0_f_4_28)">
<ellipse cx="306.5" cy="83.5" rx="246.5" ry="23.5" fill="black"/>
<path d="M306.5 60.5C374.558 60.5 436.166 63.1301 480.754 67.3809C503.05 69.5065 521.076 72.0363 533.519 74.8408C539.744 76.244 544.546 77.7097 547.781 79.2168C549.4 79.971 550.598 80.7235 551.385 81.4619C552.172 82.2009 552.5 82.8797 552.5 83.5C552.5 84.1203 552.172 84.7991 551.385 85.5381C550.598 86.2765 549.4 87.029 547.781 87.7832C544.546 89.2903 539.744 90.756 533.519 92.1592C521.076 94.9637 503.05 97.4935 480.754 99.6191C436.166 103.87 374.558 106.5 306.5 106.5C238.442 106.5 176.834 103.87 132.246 99.6191C109.95 97.4935 91.9243 94.9637 79.4814 92.1592C73.256 90.756 68.4536 89.2903 65.2188 87.7832C63.6 87.029 62.4019 86.2765 61.6152 85.5381C60.828 84.7991 60.5 84.1203 60.5 83.5C60.5 82.8797 60.828 82.2009 61.6152 81.4619C62.4019 80.7235 63.6 79.971 65.2188 79.2168C68.4536 77.7097 73.256 76.244 79.4814 74.8408C91.9243 72.0363 109.95 69.5065 132.246 67.3809C176.834 63.1301 238.442 60.5 306.5 60.5Z" stroke="black"/>
</g>
<defs>
<filter id="filter0_f_4_28" x="0" y="0" width="613" height="167" filterUnits="userSpaceOnUse" color-interpolation-filters="sRGB">
<feFlood flood-opacity="0" result="BackgroundImageFix"/>
<feBlend mode="normal" in="SourceGraphic" in2="BackgroundImageFix" result="shape"/>
<feGaussianBlur stdDeviation="30" result="effect1_foregroundBlur_4_28"/>
</filter>
</defs>
</svg>
